<svg version="1.0" xmlns="http://www.w3.org/2000/svg" preserveAspectRatio="xMidYMid meet" viewBox="69.87 75.68 307.65 307.17">
<metadata>
Created by potrace 1.10, written by Peter Selinger 2001-2011
</metadata>
<g transform="translate(0.000000,700.000000) scale(0.050000,-0.050000)" fill="#000000" stroke="none">
<path d="M6332 12402 c-15 -112 -32 -131 -142 -152 l-80 -16 80 -22 c115 -32 126 -43 141 -142 13 -90 49 -106 49 -24 1 92 46 141 150 165 l100 22 -80 16 c-126 25 -146 43 -161 141 -19 124 -41 128 -57 12z"/>
<path d="M2580 11746 l0 -437 -110 -109 -110 -109 0 -795 c0 -690 4 -796 30 -796 52 0 56 91 42 828 l-14 722 78 76 78 76 13 -304 c7 -167 14 -436 15 -596 4 -624 38 -132 53 781 l15 933 120 -132 120 -131 7 -302 c7 -321 43 -461 43 -170 0 93 5 241 12 329 l11 160 -181 200 c-100 110 -191 203 -202 207 -13 4 -20 -147 -20 -431z"/>
<path d="M5170 12030 c-11 -3 -86 -26 -166 -51 -117 -36 -155 -40 -195 -22 -54 25 -70 -8 -25 -53 19 -19 12 -24 -29 -24 -94 0 -125 -116 -55 -206 22 -28 49 -96 59 -151 20 -103 92 -275 123 -294 26 -16 22 17 -12 99 -29 69 -29 72 9 72 47 0 101 -92 101 -172 0 -52 39 -98 135 -163 39 -25 59 -26 134 -5 49 13 120 21 157 17 l68 -8 58 190 c58 191 72 341 42 448 -10 37 -9 52 5 43 35 -21 24 20 -24 92 -25 37 -73 80 -105 96 -33 16 -82 39 -110 53 -59 28 -142 47 -170 39z"/>
<path d="M4115 11773 c-160 -60 -297 -233 -265 -334 13 -40 -18 -54 -40 -19 -32 52 -150 7 -150 -57 0 -24 6 -23 37 4 43 39 86 42 119 9 29 -29 75 24 94 108 7 29 26 64 42 78 25 21 26 16 9 -30 -39 -102 -28 -152 34 -152 121 0 224 -118 225 -255 0 -31 92 -33 178 -3 35 13 69 17 76 11 20 -20 -127 -73 -201 -73 -60 0 -93 -26 -93 -72 0 -29 214 -3 272 33 137 85 206 270 73 199 -41 -22 -93 -40 -115 -39 -26 1 -10 15 47 43 48 24 113 78 145 122 l58 80 0 -74 c0 -41 -19 -119 -43 -173 -37 -89 -39 -109 -18 -187 14 -50 19 -116 11 -152 -9 -43 -7 -61 6 -52 36 22 47 126 22 209 -21 73 -19 89 29 181 168 322 -205 724 -552 595z"/>
<path d="M3815 11321 c-108 -21 -175 -91 -174 -179 l0 -72 29 50 c28 48 29 46 29 -52 1 -129 68 -208 175 -208 223 0 291 231 111 379 -83 68 -74 77 28 28 40 -19 85 -63 107 -105 l38 -72 1 56 c3 154 -123 218 -344 175z"/>
<path d="M3060 10870 l0 -210 -90 0 -90 0 0 -187 c0 -398 28 -986 43 -883 7 55 14 190 15 300 1 110 8 315 15 455 l13 255 77 0 c91 0 109 40 91 212 -13 127 -1 132 107 45 65 -52 79 -77 80 -135 3 -196 31 -239 48 -73 l16 159 -147 135 c-187 171 -178 175 -178 -73z"/>
<path d="M5190 10931 c-112 -54 -81 -67 50 -21 47 17 129 30 183 30 53 0 97 9 97 20 0 41 -226 21 -330 -29z"/>
<path d="M4103 10896 c-61 -74 -46 -88 61 -57 84 23 171 73 155 88 -47 41 -173 23 -216 -31z"/>
<path d="M4468 10827 c-58 -62 -71 -87 -48 -87 37 0 81 44 119 117 38 72 18 64 -71 -30z"/>
<path d="M5206 10859 c-78 -25 -139 -59 -165 -92 -51 -65 -44 -75 31 -46 113 43 333 79 484 80 l154 0 -60 50 c-76 62 -261 66 -444 8z"/>
<path d="M3830 10806 c-55 -14 -110 -66 -110 -104 0 -23 8 -20 30 12 17 24 57 49 90 56 33 7 60 21 60 32 0 19 -6 19 -70 4z"/>
<path d="M4288 10737 c-75 -146 21 -377 157 -377 38 0 33 7 -30 50 -115 79 -142 168 -96 325 23 82 11 83 -31 2z"/>
<path d="M5350 10746 c-256 -56 -373 -99 -530 -190 l-176 -103 47 -63 c45 -58 109 -190 109 -223 0 -8 -26 27 -59 78 -50 79 -112 135 -148 135 -18 0 -50 -125 -93 -355 -23 -124 -68 -313 -99 -420 l-58 -195 38 -62 c56 -91 48 -104 -24 -37 l-62 59 12 -90 c13 -91 -5 -87 -63 14 -11 17 -42 14 -124 -14 -61 -20 -191 -48 -290 -61 -214 -27 -212 -26 -213 -155 -1 -172 34 -247 110 -234 35 5 203 33 373 60 530 84 535 89 732 680 70 213 94 186 45 -51 l-24 -113 115 -228 115 -228 -94 96 -94 97 14 -95 c8 -52 41 -170 74 -263 72 -204 63 -230 -26 -73 l-66 117 -25 -89 c-57 -195 -128 -548 -122 -605 22 -224 943 -280 1513 -92 l127 42 -13 82 c-7 46 -47 227 -90 403 -113 471 -128 585 -115 924 18 502 69 612 67 146 -1 -357 33 -720 68 -720 9 0 49 52 89 115 l73 115 -12 180 c-30 431 -113 1003 -164 1132 -67 167 -659 346 -937 284z"/>
<path d="M3914 10677 c-45 -107 -154 -190 -288 -217 -178 -36 -244 -71 -276 -148 -79 -189 -112 -1120 -42 -1186 36 -35 37 -35 20 4 -41 91 7 1012 59 1136 37 89 70 111 205 136 192 36 305 117 350 254 30 89 8 106 -28 21z"/>
<path d="M6616 10425 c-24 -58 9 -905 35 -905 24 0 29 67 29 420 l0 420 170 0 170 0 0 -340 0 -340 185 1 c102 1 221 9 265 18 l80 16 -82 3 c-45 1 -151 8 -235 15 l-153 13 0 347 0 347 -229 0 c-126 0 -231 -7 -235 -15z"/>
<path d="M3440 9975 c0 -3 14 -50 31 -105 61 -196 129 -481 129 -538 l0 -58 135 12 c411 34 515 96 594 350 61 200 64 233 16 214 -152 -61 -509 -27 -751 71 -147 60 -154 63 -154 54z"/>
<path d="M1756 9745 l-6 -135 -153 -10 c-213 -14 -219 -39 -10 -43 95 -2 184 -4 198 -5 17 -1 28 41 35 128 l10 130 195 6 c155 4 195 11 195 35 0 24 -41 29 -229 29 l-229 0 -6 -135z"/>
<path d="M3529 9136 c-17 -51 -15 -209 1 -237 29 -46 40 -9 40 131 0 150 -15 189 -41 106z"/>
<path d="M3250 8810 c-33 -14 -164 -40 -292 -59 -370 -53 -543 -122 -647 -258 -76 -100 -62 -106 41 -16 112 99 213 134 525 182 170 26 281 55 373 98 137 64 159 64 85 1 -69 -60 -208 -127 -399 -195 -250 -88 -353 -146 -466 -264 -109 -114 -109 -114 48 -32 59 31 203 90 320 131 116 42 230 82 252 90 119 45 -65 -65 -290 -172 -371 -177 -623 -339 -475 -307 25 6 153 24 285 42 464 61 755 172 979 372 108 97 115 101 80 40 -83 -141 -390 -377 -540 -415 -141 -36 54 -81 269 -62 261 23 506 144 644 319 87 110 99 104 36 -15 -51 -98 -168 -223 -245 -263 -87 -46 -44 -65 178 -79 340 -22 517 40 604 211 90 179 42 463 -102 598 l-46 43 6 -175 6 -175 -29 115 c-50 196 -103 281 -168 268 -47 -9 -356 -53 -577 -82 -53 -7 -72 1 -98 40 -36 56 -241 67 -357 19z"/>
<path d="M1433 7823 c-86 -94 -6 -223 137 -223 l89 0 -39 -65 c-96 -157 29 -356 185 -297 70 27 131 142 75 142 -11 0 -20 -14 -20 -30 0 -55 -91 -81 -149 -42 -106 69 -39 232 95 232 236 0 356 -560 224 -1047 -41 -149 -26 -164 37 -39 166 328 163 828 -7 1062 l-60 84 2481 0 2481 0 -59 -75 c-176 -223 -187 -691 -23 -1041 73 -157 96 -152 46 9 -52 170 -52 715 0 851 73 189 248 256 341 131 90 -121 -61 -262 -159 -148 -42 49 -48 51 -48 16 0 -43 87 -123 134 -123 144 0 242 232 134 322 -47 39 -32 58 48 58 139 0 206 103 143 221 -31 59 -6033 61 -6086 2z"/>
<path d="M4791 7501 c-3 -6 41 -110 98 -231 57 -121 134 -292 171 -380 38 -88 70 -163 73 -167 2 -3 48 39 102 95 68 71 113 102 149 102 l52 0 -97 285 c-54 159 -108 287 -123 289 -72 11 -419 17 -425 7z"/>
<path d="M5464 7485 c-85 -168 -68 -297 80 -625 l59 -130 138 377 c77 207 139 383 139 391 0 36 -398 24 -416 -13z"/>
<path d="M2588 7483 c27 -44 162 -98 302 -122 164 -28 250 -74 438 -238 278 -241 505 -291 802 -175 119 46 158 52 260 42 133 -14 233 16 299 88 46 52 39 52 -59 2 -87 -44 -160 -50 -241 -20 -44 17 -74 11 -163 -31 -285 -135 -524 -63 -896 269 -172 153 -254 184 -528 197 -170 8 -224 5 -214 -12z"/>
<path d="M5348 6822 c-62 -38 -168 -177 -168 -220 0 -54 -64 -157 -111 -179 -117 -53 -59 -85 144 -79 205 6 310 56 119 56 -108 0 -106 -6 -42 119 57 113 115 161 194 161 65 0 66 3 26 80 -45 87 -91 105 -162 62z"/>
<path d="M5369 6553 c-95 -95 -89 -113 41 -113 94 0 114 7 141 49 86 131 -63 183 -182 64z"/>
</g>
</svg>
